<?xml version="1.0" encoding="UTF-8" standalone="no"?>
<svg width="194px" height="150px" viewBox="0 0 194 150" version="1.1" xmlns="http://www.w3.org/2000/svg" xmlns:xlink="http://www.w3.org/1999/xlink">
    <!-- Generator: Sketch 39.1 (31720) - http://www.bohemiancoding.com/sketch -->
    <title>btn - No Go</title>
    <desc>Created with Sketch.</desc>
    <defs>
        <rect id="path-1" x="0" y="0" width="190" height="146" rx="30"></rect>
        <filter x="-50%" y="-50%" width="200%" height="200%" filterUnits="objectBoundingBox" id="filter-2">
            <feOffset dx="0" dy="1" in="SourceAlpha" result="shadowOffsetOuter1"></feOffset>
            <feGaussianBlur stdDeviation="1" in="shadowOffsetOuter1" result="shadowBlurOuter1"></feGaussianBlur>
            <feColorMatrix values="0 0 0 0 0   0 0 0 0 0   0 0 0 0 0  0 0 0 0.5 0" type="matrix" in="shadowBlurOuter1"></feColorMatrix>
        </filter>
    </defs>
    <g id="Page-1" stroke="none" stroke-width="1" fill="none" fill-rule="evenodd">
        <g id="btn---No-Go" transform="translate(2.000000, 1.000000)">
            <g id="Rectangle-1">
                <use fill="black" fill-opacity="1" filter="url(#filter-2)" xlink:href="#path-1"></use>
                <use fill="#FAFAFA" fill-rule="evenodd" xlink:href="#path-1"></use>
            </g>
            <g id="Group" transform="translate(48.000000, 30.000000)">
                <g id="Group-9" transform="translate(29.000000, 0.000000)">
                    <path d="M10.7166723,17.2747298 L0.515249653,27.4761524 L1.29438335e-15,27.9914021 L0.515249653,28.5066517 L7.07330709,35.0647092 L7.58855674,35.5799588 L8.10380639,35.0647092 L18.3052291,24.8632865 L17.2747298,24.8632865 L27.4761524,35.0647092 L27.9914021,35.5799588 L28.5066517,35.0647092 L35.0647092,28.5066517 L35.5799588,27.9914021 L35.0647092,27.4761524 L24.8632865,17.2747298 L24.8632865,18.3052291 L35.0647092,8.10380639 L35.5799588,7.58855674 L35.0647092,7.07330709 L28.5066517,0.515249653 L27.9914021,1.29438335e-15 L27.4761524,0.515249653 L17.2747298,10.7166723 L18.3052291,10.7166723 L8.10380639,0.515249653 L7.58855674,0 L7.07330709,0.515249653 L0.515249653,7.07330709 L0,7.58855674 L0.515249653,8.10380639 L10.7166723,18.3052291 L10.7166723,17.2747298 Z" id="Shape" fill="#FFFFFF"></path>
                    <path d="M10.7906555,17.3939869 L0.51880671,27.6658357 L1.3033192e-15,28.1846424 L0.51880671,28.7034491 L7.12213808,35.3067805 L7.64094479,35.8255872 L8.1597515,35.3067805 L18.4316003,25.0349317 L17.3939869,25.0349317 L27.6658357,35.3067805 L28.1846424,35.8255872 L28.7034491,35.3067805 L35.3067805,28.7034491 L35.8255872,28.1846424 L35.3067805,27.6658357 L25.0349317,17.3939869 L25.0349317,18.4316003 L35.3067805,8.1597515 L35.8255872,7.64094479 L35.3067805,7.12213808 L28.7034491,0.51880671 L28.1846424,1.3033192e-15 L27.6658357,0.51880671 L17.3939869,10.7906555 L18.4316003,10.7906555 L8.1597515,0.51880671 L7.64094479,0 L7.12213808,0.51880671 L0.51880671,7.12213808 L0,7.64094479 L0.51880671,8.1597515 L10.7906555,18.4316003 L10.7906555,17.3939869 L10.7906555,17.3939869 Z M11.8282689,18.4316003 L12.3470756,17.9127936 L11.8282689,17.3939869 L1.55642013,7.12213808 L1.55642013,8.1597515 L8.1597515,1.55642013 L7.12213808,1.55642013 L17.3939869,11.8282689 L17.9127936,12.3470756 L18.4316003,11.8282689 L28.7034491,1.55642013 L27.6658357,1.55642013 L34.269167,8.1597515 L34.269167,7.12213808 L23.9973182,17.3939869 L23.4785115,17.9127936 L23.9973182,18.4316003 L34.269167,28.7034491 L34.269167,27.6658357 L27.6658357,34.269167 L28.7034491,34.269167 L18.4316003,23.9973182 L17.9127936,23.4785115 L17.3939869,23.9973182 L7.12213808,34.269167 L8.1597515,34.269167 L1.55642013,27.6658357 L1.55642013,28.7034491 L11.8282689,18.4316003 L11.8282689,18.4316003 Z" id="Shape" fill="#D0021B"></path>
                </g>
                <text id="No-Go" font-family="SFUIText-Light, SF UI Text" font-size="32" font-weight="300" line-spacing="32" fill="#D0021B">
                    <tspan x="0" y="84">No Go</tspan>
                </text>
            </g>
        </g>
    </g>
</svg>