<?xml version="1.0" encoding="UTF-8" standalone="no"?>
<svg width="194px" height="150px" viewBox="0 0 194 150" version="1.1" xmlns="http://www.w3.org/2000/svg" xmlns:xlink="http://www.w3.org/1999/xlink">
    <!-- Generator: Sketch 39.1 (31720) - http://www.bohemiancoding.com/sketch -->
    <title>btn - Override</title>
    <desc>Created with Sketch.</desc>
    <defs>
        <rect id="path-1" x="0" y="0" width="190" height="146" rx="30"></rect>
        <filter x="-50%" y="-50%" width="200%" height="200%" filterUnits="objectBoundingBox" id="filter-2">
            <feOffset dx="0" dy="1" in="SourceAlpha" result="shadowOffsetOuter1"></feOffset>
            <feGaussianBlur stdDeviation="1" in="shadowOffsetOuter1" result="shadowBlurOuter1"></feGaussianBlur>
            <feColorMatrix values="0 0 0 0 0   0 0 0 0 0   0 0 0 0 0  0 0 0 0.5 0" type="matrix" in="shadowBlurOuter1"></feColorMatrix>
        </filter>
    </defs>
    <g id="Page-1" stroke="none" stroke-width="1" fill="none" fill-rule="evenodd">
        <g id="btn---Override" transform="translate(2.000000, 1.000000)">
            <g id="Rectangle-1">
                <use fill="black" fill-opacity="1" filter="url(#filter-2)" xlink:href="#path-1"></use>
                <use fill="#FAFAFA" fill-rule="evenodd" xlink:href="#path-1"></use>
            </g>
            <g id="Group" transform="translate(30.000000, 30.000000)">
                <g id="Group-8" transform="translate(44.000000, 0.000000)">
                    <g id="check-2" fill="#FFFFFF">
                        <path d="M33.8889936,0.619061999 L12.8187595,22.1225585 L14.0106719,22.1225585 L8.11100638,16.1015795 L7.51505017,15.4933688 L6.91909395,16.1015795 L1.0194284,22.1225585 L0.423472182,22.7307692 L1.0194284,23.33898 L12.8187595,35.380938 L13.4147157,35.9891487 L14.0106719,35.380938 L40.9805716,7.85646248 L41.5765278,7.24825175 L40.9805716,6.64004102 L35.080906,0.619061999 L34.4849498,0.0108512715 L33.8889936,0.619061999 Z" id="Shape"></path>
                    </g>
                    <g id="check-2" fill="#69B713">
                        <path d="M33.8889936,0.619061999 L12.8187595,22.1225585 L14.0106719,22.1225585 L8.11100638,16.1015795 L7.51505017,15.4933688 L6.91909395,16.1015795 L1.0194284,22.1225585 L0.423472182,22.7307692 L1.0194284,23.33898 L12.8187595,35.380938 L13.4147157,35.9891487 L14.0106719,35.380938 L40.9805716,7.85646248 L41.5765278,7.24825175 L40.9805716,6.64004102 L35.080906,0.619061999 L34.4849498,0.0108512715 L33.8889936,0.619061999 L33.8889936,0.619061999 Z M35.080906,1.83548346 L33.8889936,1.83548346 L39.7886592,7.85646248 L39.7886592,6.64004102 L12.8187595,34.1645165 L14.0106719,34.1645165 L2.21134083,22.1225585 L2.21134083,23.33898 L8.11100638,17.3180009 L6.91909395,17.3180009 L12.8187595,23.33898 L13.4147157,23.9471907 L14.0106719,23.33898 L35.080906,1.83548346 L35.080906,1.83548346 Z" id="Shape"></path>
                    </g>
                </g>
                <text id="Override" font-family="SFUIText-Light, SF UI Text" font-size="32" font-weight="300" line-spacing="32" fill="#69B713">
                    <tspan x="0.5" y="84">Override</tspan>
                </text>
            </g>
        </g>
    </g>
</svg>