<?xml version="1.0" encoding="utf-8"?>
<!-- Generator: Adobe Illustrator 20.0.0, SVG Export Plug-In . SVG Version: 6.00 Build 0)  -->
<svg version="1.1" id="Layer_1" xmlns="http://www.w3.org/2000/svg" xmlns:xlink="http://www.w3.org/1999/xlink" x="0px" y="0px"
	 viewBox="0 0 194 150" style="enable-background:new 0 0 194 150;" xml:space="preserve">
<style type="text/css">
	.st0{filter:url(#filter-2);}
	.st1{fill:#FAFAFA;}
	.st2{fill:#FFFFFF;}
	.st3{fill:#69B713;}
	.st4{font-family:'SFUIText-Light';}
	.st5{font-size:32px;}
</style>
<filter  filterUnits="objectBoundingBox" height="200%" id="filter-2" width="200%" x="-50%" y="-50%">
	<feOffset  dx="0" dy="1" in="SourceAlpha" result="shadowOffsetOuter1"></feOffset>
	<feGaussianBlur  in="shadowOffsetOuter1" result="shadowBlurOuter1" stdDeviation="1"></feGaussianBlur>
	<feColorMatrix  in="shadowBlurOuter1" type="matrix" values="0 0 0 0 0   0 0 0 0 0   0 0 0 0 0  0 0 0 0.5 0"></feColorMatrix>
</filter>
<title>btn - Go</title>
<desc>Created with Sketch.</desc>
<g id="Page-1">
	<g id="btn---Go" transform="translate(2.000000, 1.000000)">
		<g id="Rectangle-1">
			<g class="st0">
				<path d="M30,0h130c16.6,0,30,13.4,30,30v86c0,16.6-13.4,30-30,30H30c-16.6,0-30-13.4-30-30V30C0,13.4,13.4,0,30,0z"/>
			</g>
			<g>
				<path id="path-1_1_" class="st1" d="M30,0h130c16.6,0,30,13.4,30,30v86c0,16.6-13.4,30-30,30H30c-16.6,0-30-13.4-30-30V30
					C0,13.4,13.4,0,30,0z"/>
			</g>
		</g>
		<g id="Group" transform="translate(73.000000, 30.000000)">
			<g id="Group-8" transform="translate(1.000000, 0.000000)">
				<g id="check-2">
					<path id="Shape" class="st2" d="M33.9,0.6L12.8,22.1H14l-5.9-6l-0.6-0.6l-0.6,0.6l-5.9,6l-0.6,0.6L1,23.3l11.8,12l0.6,0.6
						l0.6-0.6L41,7.9l0.6-0.6L41,6.6l-5.9-6L34.5,0L33.9,0.6z"/>
				</g>
				<g id="check-2_1_">
					<path id="Shape_1_" class="st3" d="M33.9,0.6L12.8,22.1H14l-5.9-6l-0.6-0.6l-0.6,0.6l-5.9,6l-0.6,0.6L1,23.3l11.8,12l0.6,0.6
						l0.6-0.6L41,7.9l0.6-0.6L41,6.6l-5.9-6L34.5,0L33.9,0.6L33.9,0.6z M35.1,1.8h-1.2l5.9,6V6.6l-27,27.5H14l-11.8-12v1.2l5.9-6
						H6.9l5.9,6l0.6,0.6l0.6-0.6L35.1,1.8L35.1,1.8z"/>
				</g>
			</g>
			<text transform="matrix(1 0 0 1 0.5 84)" class="st3 st4 st5">Go</text>
		</g>
	</g>
</g>
</svg>
