<svg id="Layer_4" data-name="Layer 4" xmlns="http://www.w3.org/2000/svg" viewBox="0 0 261.78 190"><defs><style>.cls-1{fill:#584ea0;}.cls-1,.cls-2,.cls-3{fill-rule:evenodd;}.cls-2{fill:#f15f60;}.cls-3{fill:#e9e9e9;}</style></defs><title>logo_startbox</title><polygon class="cls-1" points="137.42 159.12 146.17 159.12 146.17 153.02 137.42 153.02 137.42 144.05 129.9 144.05 129.9 153.02 125.65 153.02 125.65 159.12 129.9 159.12 129.9 189.41 137.42 189.41 137.42 159.12"/><path class="cls-1" d="M109.72,153v6.29q3.46-6.88,10.78-6.88v7.73h-1.9q-4.38,0-6.63,2.23t-2.25,7.73v19h-7.45V153h7.45Z"/><path class="cls-1" d="M86.31,171a12,12,0,0,0-3.23-8.84,10.71,10.71,0,0,0-15.36-.07q-3.24,3.21-3.23,8.78a12.38,12.38,0,0,0,3.23,8.94,10.5,10.5,0,0,0,15.36.07A12.15,12.15,0,0,0,86.31,171Zm-24.57,13.4q-4.9-5.27-4.9-13.5t4.87-13.36a16,16,0,0,1,12.12-5.14,14.31,14.31,0,0,1,7.48,1.93,13.61,13.61,0,0,1,5,5.08V153h7.52v36.1H86.31v-6.75a14.26,14.26,0,0,1-5,5.34,13.78,13.78,0,0,1-7.45,2A15.85,15.85,0,0,1,61.74,184.44Z"/><polygon class="cls-1" points="47.78 159.12 56.54 159.12 56.54 153.02 47.78 153.02 47.78 144.05 40.27 144.05 40.27 153.02 36.02 153.02 36.02 159.12 40.27 159.12 40.27 189.41 47.78 189.41 47.78 159.12"/><path class="cls-1" d="M9.67,150.8a6,6,0,0,0-2.09,4.95,5.62,5.62,0,0,0,2.48,4.95,17.09,17.09,0,0,0,6,2.49q3.53,0.79,7.06,1.8a12.67,12.67,0,0,1,6,3.77q2.48,2.75,2.48,7.8a12.15,12.15,0,0,1-4.25,9q-4.25,4-11.37,4T4.44,186.24A10.91,10.91,0,0,1,0,177H8a7,7,0,0,0,2.22,4.78,8.32,8.32,0,0,0,5.75,1.77,8.62,8.62,0,0,0,6-2,6.52,6.52,0,0,0,.85-8.84,8.2,8.2,0,0,0-3.46-2.26,43,43,0,0,0-4.67-1.34q-2.55-.59-5.13-1.38a21.87,21.87,0,0,1-4.71-2,9.44,9.44,0,0,1-3.46-3.64A11.84,11.84,0,0,1,0,156.23a12,12,0,0,1,4.28-9.6Q8.56,143,15.39,143t10.91,3.14a12,12,0,0,1,4.54,9.11H22.61a6.6,6.6,0,0,0-2.22-4.39,7.61,7.61,0,0,0-5.29-1.77A8.32,8.32,0,0,0,9.67,150.8Z"/><path class="cls-2" d="M261.78,153.31l-11.63,17.82,11.63,18.28h-8.43l-7.78-12.25-7.32,12.25h-7.78l11.63-17.75-11.63-18.34h8.43l7.78,12.25L254,153.31h7.78Zm-64.71,31.54q-5.1-5.14-5.1-13.5t5.26-13.5a19.26,19.26,0,0,1,26.21,0q5.26,5.14,5.26,13.46t-5.39,13.5A18.42,18.42,0,0,1,210,190,17.49,17.49,0,0,1,197.07,184.85Zm24-13.53q0-5.83-3.17-9.07A10.34,10.34,0,0,0,210.2,159a10,10,0,0,0-7.58,3.24q-3.07,3.24-3.07,9.11t3,9.11a9.79,9.79,0,0,0,7.48,3.24,10.57,10.57,0,0,0,7.74-3.28Q221.05,177.15,221.05,171.32Zm-60.39,12.25h10.06a8.69,8.69,0,0,0,5.95-1.9,6.66,6.66,0,0,0,2.16-5.27,6.77,6.77,0,0,0-2.29-5.37,8.91,8.91,0,0,0-6.08-2h-9.8v14.54Zm0-33.87v13.5h9.21a8.5,8.5,0,0,0,5.72-1.77,6.17,6.17,0,0,0,2.06-4.95,6.27,6.27,0,0,0-2.06-5,8.39,8.39,0,0,0-5.72-1.8h-9.21Zm-7.45-5.83h17.32q7,0,10.85,3.41a11,11,0,0,1,3.86,8.65q0,7.67-8.82,10.09a11.5,11.5,0,0,1,9.87,11.4,10.72,10.72,0,0,1-4.05,8.62q-4.05,3.37-10.85,3.37H153.22V143.87Z"/><path class="cls-3" d="M131,0A93.92,93.92,0,0,1,84.74,15.72,108,108,0,0,0,84,28.39,106.93,106.93,0,0,0,131,117a106.93,106.93,0,0,0,47-88.61,108,108,0,0,0-.74-12.67A93.92,93.92,0,0,1,131,0Z"/><path class="cls-1" d="M123.51,93.87A95.49,95.49,0,0,1,97.62,28.2q0-1,0-2.07a102.46,102.46,0,0,0,25.86-8.44V93.87Z"/><path class="cls-2" d="M138.49,19A103.09,103.09,0,0,0,164.36,27q0,0.9,0,1.8a94.17,94.17,0,0,1-25.88,65.08V19Z"/></svg>