<svg id="Layer_1" data-name="Layer 1" xmlns="http://www.w3.org/2000/svg" xmlns:xlink="http://www.w3.org/1999/xlink" viewBox="0 0 271.78 200"><defs><style>.cls-1,.cls-2{fill:none;}.cls-1{clip-rule:evenodd;}.cls-3{clip-path:url(#clip-path);}.cls-4{clip-path:url(#clip-path-2);}.cls-5{fill:#e9e9e9;}.cls-6{clip-path:url(#clip-path-3);}.cls-7{fill:#584ea0;}.cls-8{clip-path:url(#clip-path-5);}.cls-9{fill:#f15f60;}.cls-10{clip-path:url(#clip-path-7);}.cls-11{clip-path:url(#clip-path-9);}.cls-12{clip-path:url(#clip-path-11);}.cls-13{clip-path:url(#clip-path-13);}.cls-14{clip-path:url(#clip-path-15);}.cls-15{clip-path:url(#clip-path-17);}</style><clipPath id="clip-path" transform="translate(-52 -50)"><path class="cls-1" d="M188,55a93.92,93.92,0,0,1-46.26,15.72A108,108,0,0,0,141,83.39,106.93,106.93,0,0,0,188,172a106.93,106.93,0,0,0,47-88.61,108,108,0,0,0-.74-12.67A93.92,93.92,0,0,1,188,55Z"/></clipPath><clipPath id="clip-path-2" transform="translate(-52 -50)"><rect class="cls-2" width="375" height="300"/></clipPath><clipPath id="clip-path-3" transform="translate(-52 -50)"><path class="cls-1" d="M180.51,148.87A95.49,95.49,0,0,1,154.62,83.2q0-1,0-2.07a102.46,102.46,0,0,0,25.86-8.44v76.19Z"/></clipPath><clipPath id="clip-path-5" transform="translate(-52 -50)"><path class="cls-1" d="M195.49,74A103.09,103.09,0,0,0,221.36,82q0,0.9,0,1.8a94.17,94.17,0,0,1-25.88,65.08V74Z"/></clipPath><clipPath id="clip-path-7" transform="translate(-52 -50)"><path class="cls-1" d="M318.78,208.31l-11.63,17.82,11.63,18.28h-8.43l-7.78-12.25-7.32,12.25h-7.78l11.63-17.75-11.63-18.34h8.43l7.78,12.25L311,208.31h7.78Zm-64.71,31.54q-5.1-5.14-5.1-13.5t5.26-13.5a19.26,19.26,0,0,1,26.21,0q5.26,5.14,5.26,13.46t-5.39,13.5A18.42,18.42,0,0,1,267,245,17.49,17.49,0,0,1,254.07,239.85Zm24-13.53q0-5.83-3.17-9.07A10.34,10.34,0,0,0,267.2,214a10,10,0,0,0-7.58,3.24q-3.07,3.24-3.07,9.11t3,9.11a9.79,9.79,0,0,0,7.48,3.24,10.57,10.57,0,0,0,7.74-3.28Q278.05,232.15,278.05,226.32Zm-60.39,12.25h10.06a8.69,8.69,0,0,0,5.95-1.9,6.66,6.66,0,0,0,2.16-5.27,6.77,6.77,0,0,0-2.29-5.37,8.91,8.91,0,0,0-6.08-2h-9.8v14.54Zm0-33.87v13.5h9.21a8.5,8.5,0,0,0,5.72-1.77,6.17,6.17,0,0,0,2.06-4.95,6.27,6.27,0,0,0-2.06-5,8.39,8.39,0,0,0-5.72-1.8h-9.21Zm-7.45-5.83h17.32q7,0,10.85,3.41a11,11,0,0,1,3.86,8.65q0,7.67-8.82,10.09a11.5,11.5,0,0,1,9.87,11.4,10.72,10.72,0,0,1-4.05,8.62q-4.05,3.37-10.85,3.37H210.22V198.87Z"/></clipPath><clipPath id="clip-path-9" transform="translate(-52 -50)"><polygon class="cls-1" points="194.42 214.12 203.17 214.12 203.17 208.02 194.42 208.02 194.42 199.05 186.9 199.05 186.9 208.02 182.65 208.02 182.65 214.12 186.9 214.12 186.9 244.41 194.42 244.41 194.42 214.12"/></clipPath><clipPath id="clip-path-11" transform="translate(-52 -50)"><path class="cls-1" d="M166.72,208v6.29q3.46-6.88,10.78-6.88v7.73h-1.9q-4.38,0-6.63,2.23t-2.25,7.73v19h-7.45V208h7.45Z"/></clipPath><clipPath id="clip-path-13" transform="translate(-52 -50)"><path class="cls-1" d="M143.31,226a12,12,0,0,0-3.23-8.84,10.71,10.71,0,0,0-15.36-.07q-3.24,3.21-3.23,8.78a12.38,12.38,0,0,0,3.23,8.94,10.5,10.5,0,0,0,15.36.07A12.15,12.15,0,0,0,143.31,226Zm-24.57,13.4q-4.9-5.27-4.9-13.5t4.87-13.36a16,16,0,0,1,12.12-5.14,14.31,14.31,0,0,1,7.48,1.93,13.61,13.61,0,0,1,5,5.08V208h7.52v36.1h-7.52v-6.75a14.26,14.26,0,0,1-5,5.34,13.78,13.78,0,0,1-7.45,2A15.85,15.85,0,0,1,118.74,239.44Z"/></clipPath><clipPath id="clip-path-15" transform="translate(-52 -50)"><polygon class="cls-1" points="104.78 214.12 113.54 214.12 113.54 208.02 104.78 208.02 104.78 199.05 97.27 199.05 97.27 208.02 93.02 208.02 93.02 214.12 97.27 214.12 97.27 244.41 104.78 244.41 104.78 214.12"/></clipPath><clipPath id="clip-path-17" transform="translate(-52 -50)"><path class="cls-1" d="M66.67,205.8a6,6,0,0,0-2.09,4.95,5.62,5.62,0,0,0,2.48,4.95,17.09,17.09,0,0,0,6,2.49q3.53,0.79,7.06,1.8a12.67,12.67,0,0,1,6,3.77q2.48,2.75,2.48,7.8a12.15,12.15,0,0,1-4.25,9q-4.25,4-11.37,4t-11.57-3.34A10.91,10.91,0,0,1,57,232h8a7,7,0,0,0,2.22,4.78,8.32,8.32,0,0,0,5.75,1.77,8.62,8.62,0,0,0,6-2,6.52,6.52,0,0,0,.85-8.84,8.2,8.2,0,0,0-3.46-2.26,43,43,0,0,0-4.67-1.34q-2.55-.59-5.13-1.38a21.87,21.87,0,0,1-4.71-2,9.44,9.44,0,0,1-3.46-3.64A11.84,11.84,0,0,1,57,211.23a12,12,0,0,1,4.28-9.6Q65.56,198,72.39,198t10.91,3.14a12,12,0,0,1,4.54,9.11H79.61a6.6,6.6,0,0,0-2.22-4.39,7.61,7.61,0,0,0-5.29-1.77A8.32,8.32,0,0,0,66.67,205.8Z"/></clipPath></defs><title>logo_startbox</title><g class="cls-3"><g class="cls-4"><rect class="cls-5" x="84" width="104" height="127"/></g></g><g class="cls-6"><g class="cls-4"><rect class="cls-7" x="97.62" y="17.69" width="35.88" height="86.19"/></g></g><g class="cls-8"><g class="cls-4"><rect class="cls-9" x="138.49" y="19.05" width="35.88" height="84.83"/></g></g><g class="cls-10"><g class="cls-4"><rect class="cls-9" x="153.22" y="143.87" width="118.56" height="56.12"/></g></g><g class="cls-11"><g class="cls-4"><rect class="cls-7" x="125.65" y="144.05" width="30.52" height="55.36"/></g></g><g class="cls-12"><g class="cls-4"><rect class="cls-7" x="102.27" y="152.43" width="28.23" height="46.69"/></g></g><g class="cls-13"><g class="cls-4"><rect class="cls-7" x="56.84" y="152.43" width="46.99" height="47.28"/></g></g><g class="cls-14"><g class="cls-4"><rect class="cls-7" x="36.02" y="144.05" width="30.52" height="55.36"/></g></g><g class="cls-15"><g class="cls-4"><rect class="cls-7" y="143" width="41.63" height="56.58"/></g></g></svg>