<svg id="Layer_1" data-name="Layer 1" xmlns="http://www.w3.org/2000/svg" viewBox="0 0 94 117"><defs><style>.cls-1{fill:#e9e9e9;}.cls-1,.cls-2,.cls-3{fill-rule:evenodd;}.cls-2{fill:#584ea0;}.cls-3{fill:#f15f60;}</style></defs><title>logo_startbox_emblem</title><path class="cls-1" d="M47,0A93.92,93.92,0,0,1,.74,15.72,108,108,0,0,0,0,28.39,106.93,106.93,0,0,0,47,117,106.93,106.93,0,0,0,94,28.39a108,108,0,0,0-.74-12.67A93.92,93.92,0,0,1,47,0Z"/><path class="cls-2" d="M39.51,93.87A95.49,95.49,0,0,1,13.62,28.2q0-1,0-2.07a102.46,102.46,0,0,0,25.86-8.44V93.87Z"/><path class="cls-3" d="M54.49,19A103.09,103.09,0,0,0,80.36,27q0,0.9,0,1.8A94.17,94.17,0,0,1,54.49,93.87V19Z"/></svg>