<svg id="Layer_4" data-name="Layer 4" xmlns="http://www.w3.org/2000/svg" viewBox="0 0 675.28 117"><defs><style>.cls-1{fill:#584ea0;}.cls-1,.cls-2,.cls-3{fill-rule:evenodd;}.cls-2{fill:#f15f60;}.cls-3{fill:#e9e9e9;}</style></defs><title>logo_startbox_horizontal</title><polygon class="cls-1" points="418.61 40.62 436.68 40.62 436.68 28.05 418.61 28.05 418.61 9.53 403.1 9.53 403.1 28.05 394.33 28.05 394.33 40.62 403.1 40.62 403.1 103.14 418.61 103.14 418.61 40.62"/><path class="cls-1" d="M361.44,28V41q7.15-14.2,22.26-14.2v16h-3.91q-9,0-13.69,4.6t-4.65,16v39.21H346.07V28h15.38Z"/><path class="cls-1" d="M313.13,65.23q0-11.49-6.68-18.25a22.11,22.11,0,0,0-31.7-.14q-6.68,6.63-6.68,18.12t6.68,18.46a21.66,21.66,0,0,0,31.7.14Q313.13,76.73,313.13,65.23ZM262.42,92.88Q252.3,82,252.3,65t10-27.58a33,33,0,0,1,25-10.61,29.53,29.53,0,0,1,15.44,4A28.09,28.09,0,0,1,313.13,41.3V28h15.51v74.5H313.13V88.62a29.43,29.43,0,0,1-10.39,11,28.44,28.44,0,0,1-15.38,4.12A32.72,32.72,0,0,1,262.42,92.88Z"/><polygon class="cls-1" points="233.62 40.62 251.69 40.62 251.69 28.05 233.62 28.05 233.62 9.53 218.11 9.53 218.11 28.05 209.34 28.05 209.34 40.62 218.11 40.62 218.11 103.14 233.62 103.14 233.62 40.62"/><path class="cls-1" d="M155,23.45q-4.32,3.52-4.32,10.21a11.61,11.61,0,0,0,5.13,10.21A35.28,35.28,0,0,0,168.18,49q7.28,1.62,14.57,3.72a26.16,26.16,0,0,1,12.41,7.77q5.13,5.68,5.13,16.09t-8.77,18.66q-8.77,8.25-23.47,8.25t-23.87-6.9Q135,89.71,135,77.54h16.46A14.41,14.41,0,0,0,156,87.41q4,3.65,11.87,3.65T180.25,87a12.5,12.5,0,0,0,4.52-9.6q0-5.54-2.77-8.65a16.92,16.92,0,0,0-7.15-4.66,88.73,88.73,0,0,0-9.64-2.77q-5.26-1.22-10.59-2.84a45.13,45.13,0,0,1-9.71-4.19,19.49,19.49,0,0,1-7.15-7.5A24.44,24.44,0,0,1,135,34.67q0-12.3,8.83-19.81t22.93-7.5q14.1,0,22.53,6.49t9.37,18.79h-17a13.63,13.63,0,0,0-4.59-9.06q-4-3.65-10.93-3.65T155,23.45Z"/><path class="cls-2" d="M675.28,28.64l-24,36.78,24,37.72h-17.4L641.83,77.85l-15.11,25.28H610.67l24-36.64-24-37.86h17.4l16.05,25.28,15.11-25.28h16.05ZM541.72,93.74Q531.2,83.13,531.2,65.89T542.06,38q10.86-10.61,27-10.61t27,10.61Q607,48.65,607,65.82T595.88,93.67q-11.13,10.68-27.38,10.68T541.72,93.74Zm49.5-27.92q0-12-6.54-18.73a21.34,21.34,0,0,0-15.85-6.69,20.69,20.69,0,0,0-15.65,6.69q-6.34,6.69-6.34,18.79t6.2,18.79a20.2,20.2,0,0,0,15.44,6.69,21.82,21.82,0,0,0,16-6.76Q591.22,77.85,591.22,65.82ZM466.59,91.1h20.77q7.82,0,12.27-3.92t4.45-10.88a14,14,0,0,0-4.72-11.09q-4.72-4.12-12.54-4.12H466.59v30Zm0-69.9V49.05h19q7.55,0,11.8-3.65t4.25-10.21q0-6.56-4.25-10.28t-11.8-3.72h-19Zm-15.38-12H487q14.43,0,22.39,7a22.77,22.77,0,0,1,8,17.85q0,15.82-18.21,20.82a23.73,23.73,0,0,1,20.37,23.53,22.12,22.12,0,0,1-8.36,17.78q-8.36,7-22.39,7h-37.5v-94Z"/><path class="cls-3" d="M47,0A93.92,93.92,0,0,1,.74,15.72,108,108,0,0,0,0,28.39,106.93,106.93,0,0,0,47,117,106.93,106.93,0,0,0,94,28.39a108,108,0,0,0-.74-12.67A93.92,93.92,0,0,1,47,0Z"/><path class="cls-1" d="M39.51,93.87A95.49,95.49,0,0,1,13.62,28.2q0-1,0-2.07a102.46,102.46,0,0,0,25.86-8.44V93.87Z"/><path class="cls-2" d="M54.49,19A103.09,103.09,0,0,0,80.36,27q0,0.9,0,1.8A94.17,94.17,0,0,1,54.49,93.87V19Z"/></svg>