<?xml version="1.0" encoding="utf-8"?>
<!-- Generator: Adobe Illustrator 20.0.0, SVG Export Plug-In . SVG Version: 6.00 Build 0)  -->
<svg version="1.1" id="Layer_1" xmlns="http://www.w3.org/2000/svg" xmlns:xlink="http://www.w3.org/1999/xlink" x="0px" y="0px"
	 viewBox="0 0 207 150" style="enable-background:new 0 0 207 150;" xml:space="preserve">
<style type="text/css">
	.st0{fill:none;}
	.st1{fill:#EA636E;}
	.st2{fill:#DBD9D6;}
	.st3{fill:#A163BD;}
</style>
<path class="st0" d="M93,22.9c-6,2.1-12.8,4.8-22.6,6.6c0,0-3.4,30.6,22.6,54.2V22.9z"/>
<path class="st0" d="M93,83.8V22.9c-6,2.1-12.8,4.8-22.6,6.6C70.4,29.5,67,60.2,93,83.8z"/>
<path class="st1" d="M130.6,29.5c-9.8-1.9-16.6-4.5-22.6-6.6v60.9C133,60.2,130.6,29.5,130.6,29.5z"/>
<path class="st0" d="M93,83.8V22.9c-6,2.1-12.8,4.8-22.6,6.6C70.4,29.5,67,60.2,93,83.8z"/>
<path class="st2" d="M142.2,19.3C109.5,14.9,100.4,4,100.4,4s-9.1,10.8-41.9,15.3c0,0-11,54.3,41.8,85c9.3-5.4,16.7-11.7,22.4-18.1
	c4-4.6,7.3-9.2,9.9-13.8C147.6,45.9,142.2,19.3,142.2,19.3z M93,83.8C67,60.2,70.4,29.5,70.4,29.5c9.8-1.9,16.6-4.5,22.6-6.6V83.8z
	 M108,83.8V22.9c6,2.1,12.8,4.8,22.6,6.6C130.6,29.5,133,60.2,108,83.8z"/>
<path class="st3" d="M70.4,29.5c9.8-1.9,16.6-4.5,22.6-6.6v60.9C67,60.2,70.4,29.5,70.4,29.5z"/>
<g>
	<path d="M142.2,19.3C109.5,14.9,100.4,4,100.4,4s-9.1,10.8-41.9,15.3c0,0-11,54.3,41.8,85c9.3-5.4,16.7-11.7,22.4-18.1
		c4-4.6,7.3-9.2,9.9-13.8C147.6,45.9,142.2,19.3,142.2,19.3z M100.4,100.1C53.2,71.2,61.8,22,61.8,22c28.6-5.1,38.6-13.7,38.6-13.7
		s10,8.6,38.6,13.7C138.9,22,147.6,71.2,100.4,100.1z"/>
</g>
<path id="StartBox" sketch:type="MSShapeGroup" d="M23.3,125c-0.2,0.6-0.3,1.1-0.3,1.8s0.3,1.2,0.8,1.7c0.6,0.5,1.3,1,2.2,1.3
	c0.9,0.4,2,0.7,3.1,1c1.2,0.3,2.4,0.6,3.6,0.9c1.2,0.3,2.4,0.6,3.6,1c1.2,0.4,2.2,0.9,3.1,1.4c2,1.2,3,3,3,5.1c0,2.6-1,4.6-3,5.9
	c-2,1.4-4.7,2-8.2,2c-4,0-7-0.8-9.1-2.4c-1.9-1.4-2.9-3.5-3.2-6.2h3.3c0.1,1.9,1.1,3.3,2.8,4.3c1.5,0.9,3.6,1.3,6.1,1.3
	c5.3,0,8-1.6,8-4.9c0-1.1-0.5-2-1.4-2.6c-1-0.6-2.2-1.2-3.6-1.6c-1.4-0.4-3-0.8-4.7-1.2c-1.7-0.4-3.2-0.8-4.7-1.4
	c-1.4-0.6-2.6-1.3-3.6-2.2c-1-0.9-1.4-2.2-1.4-3.8c0-2.2,0.9-4.1,2.7-5.5c1.8-1.4,4.4-2.1,8-2.1c3.6,0,6.4,0.8,8.3,2.4
	c1.8,1.4,2.8,3.2,2.9,5.5h-3.3c-0.3-2.3-1.8-3.8-4.5-4.5c-1-0.3-2.2-0.4-3.6-0.4c-1.4,0-2.7,0.2-3.6,0.5c-1,0.3-1.7,0.7-2.3,1.2
	C23.8,123.9,23.4,124.4,23.3,125L23.3,125z M49,146.8v-18.1h-4.4V126H49v-7.5h3.2v7.5h4.9v2.7h-4.9v18.1H49z M76.9,143.5
	c-1.7,2.4-4.3,3.7-7.7,3.7c-3.1,0-5.6-1-7.5-3.1c-1.9-2.1-2.8-4.6-2.8-7.6s0.9-5.6,2.8-7.6c1.9-2.1,4.5-3.1,7.7-3.1
	c3.2,0,5.7,1.2,7.4,3.7V126h3.2v20.8h-3.2V143.5z M69.7,144.3c2.3,0,4.1-0.8,5.5-2.3c1.3-1.5,1.9-3.3,1.9-5.6c0-2.2-0.6-4.1-1.9-5.6
	c-1.3-1.6-3.2-2.3-5.5-2.3c-2.3,0-4.1,0.8-5.6,2.3c-1.3,1.5-2,3.3-2,5.6c0,2.2,0.7,4.1,2,5.6C65.6,143.6,67.4,144.3,69.7,144.3
	L69.7,144.3z M97,125.7v3.1h-0.4c-2.3,0-4.2,0.9-5.6,2.7c-1.4,1.7-2.1,3.8-2.1,6.2v9.2h-3.2V126h3.2v5.1c0.7-2.2,2.2-3.8,4.4-4.8
	c0.9-0.4,2.1-0.7,3.4-0.7H97z M102.8,146.8v-18.1h-4.4V126h4.4v-7.5h3.2v7.5h4.9v2.7H106v18.1H102.8z M136.5,126.5
	c0,3-1.3,5.1-3.8,6.2c2.3,0.7,3.9,2.1,4.8,4.1c0.3,0.8,0.5,1.7,0.5,2.7c0,3.3-1.8,5.6-5.4,6.7c-1.2,0.4-2.6,0.6-4.2,0.6h-13.4v-27.6
	h12.7c3.1,0,5.4,0.8,7,2.4C135.9,122.9,136.5,124.6,136.5,126.5L136.5,126.5z M118.1,131.6h9.5c2.6,0,4.4-0.9,5.3-2.6
	c0.3-0.6,0.5-1.3,0.5-2c0-0.7-0.1-1.3-0.3-1.9c-0.2-0.5-0.5-1-0.9-1.4c-0.9-1-2.3-1.5-4.1-1.5h-9.8V131.6z M128.6,143.9
	c2,0,3.5-0.4,4.5-1.2c1.1-0.8,1.6-1.9,1.6-3.4c0-1.4-0.5-2.5-1.5-3.4c-1.1-1-2.8-1.5-4.9-1.5h-10.2v9.5H128.6z M151.8,125.7
	c3.2,0,5.8,1,7.8,3.1c1.9,2,2.8,4.5,2.8,7.6s-0.9,5.6-2.8,7.6c-2,2.1-4.6,3.1-7.8,3.1s-5.8-1-7.8-3.1c-1.9-2-2.8-4.5-2.8-7.6
	s0.9-5.6,2.8-7.6C146,126.7,148.6,125.7,151.8,125.7L151.8,125.7z M151.8,144.3c2.3,0,4.1-0.8,5.5-2.3c1.3-1.5,1.9-3.3,1.9-5.6
	c0-2.2-0.6-4.1-1.9-5.6c-1.3-1.6-3.2-2.3-5.5-2.3c-2.3,0-4.1,0.8-5.5,2.3c-1.3,1.5-1.9,3.3-1.9,5.6c0,2.2,0.6,4.1,1.9,5.6
	C147.6,143.6,149.5,144.3,151.8,144.3L151.8,144.3z M175.1,136.1l8.3,10.7h-4.1l-6-8.5l-6.1,8.5h-4.1l8.3-10.7l-7.7-10.1h4.1
	l5.5,7.9l5.5-7.9h4.1L175.1,136.1z"/>
<path id="TM" sketch:type="MSShapeGroup" d="M186.4,121.3h-1.5v3.6h-0.5v-3.6H183v-0.4h3.4V121.3z M191,120.8v4.1h-0.5v-3.4
	l-1.5,1.9l-1.6-1.9v3.4H187v-4.1h0.5l1.5,1.9l1.5-1.9H191z"/>
</svg>
