<?xml version="1.0" encoding="utf-8"?>
<!-- Generator: Adobe Illustrator 20.0.0, SVG Export Plug-In . SVG Version: 6.00 Build 0)  -->
<svg version="1.1" id="Layer_1" xmlns="http://www.w3.org/2000/svg" xmlns:xlink="http://www.w3.org/1999/xlink" x="0px" y="0px"
	 viewBox="0 0 110 99" style="enable-background:new 0 0 110 99;" xml:space="preserve">
<style type="text/css">
	.st0{fill:none;}
	.st1{fill:#EA636E;}
	.st2{fill:#DBD9D6;}
	.st3{fill:#A163BD;}
</style>
<path class="st0" d="M47,19.1c-6,2.1-12,4.6-21.2,6.4c0,0-2.8,29.5,21.2,52.2V19.1z"/>
<path class="st0" d="M47,77.7V19.1c-6,2.1-12,4.6-21.2,6.4C25.8,25.5,23,55,47,77.7z"/>
<path class="st1" d="M82.2,25.5C73,23.7,67,21.2,61,19.1v58.6C86,55,82.2,25.5,82.2,25.5z"/>
<path class="st0" d="M47,77.7V19.1c-6,2.1-12,4.6-21.2,6.4C25.8,25.5,23,55,47,77.7z"/>
<path class="st2" d="M93.3,15.7C62.7,11.4,54.1,0.9,54.1,0.9s-8.6,10.4-39.2,14.7c0,0-10.3,52.2,39.2,81.8
	c8.7-5.2,15.6-11.3,21-17.4c3.8-4.5,6.8-8.8,9.3-13.3C98.3,41.3,93.3,15.7,93.3,15.7z M47,77.7C23,55,25.8,25.5,25.8,25.5
	C35,23.7,41,21.2,47,19.1V77.7z M61,77.7V19.1c6,2.1,12,4.6,21.2,6.4C82.2,25.5,86,55,61,77.7z"/>
<path class="st3" d="M25.8,25.5C35,23.7,41,21.2,47,19.1v58.6C23,55,25.8,25.5,25.8,25.5z"/>
<g>
	<path d="M93.3,15.7C62.7,11.4,54.1,0.9,54.1,0.9s-8.6,10.4-39.2,14.7c0,0-10.3,52.2,39.2,81.8c8.7-5.2,15.6-11.3,21-17.4
		c3.8-4.5,6.8-8.8,9.3-13.3C98.3,41.3,93.3,15.7,93.3,15.7z M54.1,93.4C9.9,65.6,18,18.3,18,18.3C44.8,13.3,54.1,5.1,54.1,5.1
		s9.3,8.3,36.1,13.2C90.3,18.3,98.4,65.6,54.1,93.4z"/>
</g>
</svg>
